<svg width="74" height="32" viewBox="0 0 74 32" fill="none" xmlns="http://www.w3.org/2000/svg">
<g id="symbol">
<path id="Vector" d="M52.1543 26.1222V22.2786C54.5201 21.4672 56.2429 18.9475 56.2429 15.9652C56.2429 12.9828 54.5201 10.456 52.1543 9.65169V5.80811C54.3822 5.04651 56.0438 2.76168 56.2276 0H53.5171V1.17443C53.5171 2.07839 52.966 2.87557 52.1543 3.27417V2.7261C52.1543 1.9218 51.45 1.26696 50.5849 1.26696H50.447C49.582 1.26696 48.8774 1.9218 48.8774 2.7261V3.27417C48.0659 2.87557 47.5145 2.08551 47.5145 1.17443V0H44.8044C44.9882 2.76168 46.6494 5.04651 48.8774 5.80811V9.65169C46.5193 10.456 44.7891 12.9757 44.7891 15.9652C44.7891 18.9546 46.5116 21.4743 48.8774 22.2786V26.1222C46.6494 26.8838 44.9882 29.1687 44.8044 31.9303H47.5145V30.7558C47.5145 29.8519 48.0659 29.0546 48.8774 28.6561V29.2042C48.8774 30.0086 49.582 30.6634 50.447 30.6634H50.5849C51.45 30.6634 52.1543 30.0086 52.1543 29.2042V28.6561C52.966 29.0546 53.5171 29.8448 53.5171 30.7558V31.9303H56.2276C56.0438 29.1687 54.3822 26.8838 52.1543 26.1222ZM47.5145 17.6449V14.2782C47.5145 13.3743 48.0659 12.5771 48.8774 12.1785V12.7266C48.8774 13.5309 49.582 14.1857 50.447 14.1857H50.5849C51.45 14.1857 52.1543 13.5309 52.1543 12.7266V12.1785C52.966 12.5771 53.5171 13.3672 53.5171 14.2782V17.6449C53.5171 18.5489 52.966 19.3461 52.1543 19.7447V19.1966C52.1543 18.3923 51.45 17.7375 50.5849 17.7375H50.447C49.582 17.7375 48.8774 18.3923 48.8774 19.1966V19.7447C48.0736 19.3461 47.5145 18.556 47.5145 17.6449Z" fill="#F9F4D5"/>
<path id="Vector_2" d="M68.7833 18.008V13.9152C71.1491 13.1038 72.8719 10.5841 72.8719 7.60178C72.8719 4.61943 71.1491 2.09262 68.7833 1.28831V0H65.5141V1.28831C63.1483 2.09974 61.4258 4.61943 61.4258 7.60178C61.4258 10.5841 63.1483 13.1109 65.5141 13.9152V18.008C63.1483 18.8194 61.4258 21.3391 61.4258 24.3214C61.4258 27.3038 63.1483 29.8306 65.5141 30.6349V31.9231H68.7833V30.6349C71.1491 29.8235 72.8719 27.3038 72.8719 24.3214C72.8719 21.3391 71.1491 18.8194 68.7833 18.008ZM64.1436 9.28156V5.91486C64.1436 5.0109 64.695 4.21372 65.5065 3.81511V4.36319C65.5065 5.16751 66.211 5.82233 67.0761 5.82233H67.2063C68.0714 5.82233 68.7757 5.16751 68.7757 4.36319V3.81511C69.5874 4.21372 70.1385 5.00379 70.1385 5.91486V9.28156C70.1385 10.1855 69.5874 10.9827 68.7757 11.3813V10.8332C68.7757 10.0289 68.0714 9.37409 67.2063 9.37409H67.0684C66.2034 9.37409 65.4988 10.0289 65.4988 10.8332V11.3813C64.7026 10.9827 64.1436 10.1926 64.1436 9.28156ZM70.1462 26.0083C70.1462 26.9123 69.5951 27.7095 68.7833 28.108V27.3038C68.7833 26.4994 68.079 25.8446 67.214 25.8446H67.0838C66.2187 25.8446 65.5141 26.4994 65.5141 27.3038V28.108C64.7026 27.7095 64.1513 26.9194 64.1513 26.0083V22.6416C64.1513 21.7377 64.7026 20.9405 65.5141 20.5419V20.8337C65.5141 21.638 66.2187 22.2928 67.0838 22.2928H67.2216C68.0867 22.2928 68.791 21.638 68.791 20.8337V20.5419C69.6027 20.9405 70.1539 21.7305 70.1539 22.6416V26.0083H70.1462Z" fill="#F9F4D5"/>
<path id="Vector_3" d="M33.4198 12.7052C33.3891 12.5415 33.3508 12.3849 33.2896 12.2355C33.3125 12.1999 38.3962 5.61593 33.6878 1.54458C28.9868 -2.52679 23.4971 2.78308 23.4665 2.81156C22.5937 2.5553 21.7132 2.39871 20.8404 2.32753C20.8404 2.32753 20.8404 2.32753 20.8328 2.32753C19.0412 2.04994 16.5299 2.32753 16.5299 2.32753C15.6648 2.39871 14.792 2.5553 13.9268 2.80442C13.8961 2.77595 8.40659 -2.5339 3.70565 1.53746C-0.995317 5.60882 4.08079 12.1999 4.10377 12.2284C4.05019 12.3849 4.00424 12.5415 3.97361 12.6981C3.46831 15.5168 0 16.3851 0 21.2964C0 26.3002 3.62141 30.2433 11.0174 30.2433H14.0493C14.0646 30.2575 15.236 31.8094 17.6554 31.9019C17.6554 31.9019 18.2143 31.9587 19.5006 31.9161C22.0654 31.9161 23.3134 30.2718 23.3211 30.2504H26.3529C33.7488 30.2504 37.3703 26.3073 37.3703 21.3035C37.3932 16.3994 33.9249 15.5239 33.4198 12.7052Z" fill="#F9F4D5"/>
</g>
</svg>
